<svg width="248" height="248" viewBox="0 0 248 248" fill="none" xmlns="http://www.w3.org/2000/svg">
<rect width="248" height="248" rx="124" fill="#F1F3F6"/>
<g clip-path="url(#clip0_344_142)">
<path fill-rule="evenodd" clip-rule="evenodd" d="M115.03 24C121.01 24 126.99 24 132.96 24C133.1 24.3 133.34 24.5 133.67 24.59C154.58 26.92 172.99 35 188.89 48.82C207.19 64.08 221.79 90.59 223.39 114.36C223.49 114.68 223.69 114.91 224 115.03C224 121.01 224 126.99 224 132.97C223.71 133.12 223.51 133.35 223.4 133.67C218.82 180.21 180.12 218.61 133.66 223.46C133.35 223.55 133.12 223.73 132.96 224C126.98 224 121.01 224 115.04 224C114.9 223.71 114.67 223.52 114.37 223.42C67.81 218.75 29.25 180.2 24.62 133.6C24.51 133.29 24.3 133.08 24 132.97C24 126.99 24 121.01 24 115.04C24.31 114.91 24.5 114.68 24.58 114.34C29.56 67.42 67.43 29.66 114.3 24.55C114.62 24.46 114.86 24.28 115.03 24ZM32 130C32.57 140.74 37.01 157.66 42.88 166.57C44.87 167.45 46.71 163.37 50.3 167.07C53.52 172.31 45.98 172.5 48.09 175.46C54.49 184.71 62.26 192.61 71.41 199.16C75.29 202.61 74.5 197.22 78.5 197.01C81.35 197.29 82.63 198.85 82.35 201.7C82.11 202.76 80.47 204.68 81.9 205.53C92.59 211.45 103.43 214.29 115.5 215.87C122.1 216.74 119 214.71 120.77 210.37C122.92 207.84 125.07 207.84 127.22 210.37C127.78 211.99 128.07 213.67 128.08 215.4C128.26 215.56 128.43 215.72 128.61 215.89C140.48 215.92 154.12 211.63 164.67 206.21C169.73 204.56 162.6 201.33 167.07 197.7C172.09 194.69 172.36 201.41 175.34 199.77C184.76 193.28 192.77 185.37 199.38 176.03C201.37 173.55 198.61 172.85 197.42 171.14C196.45 167.85 197.66 165.97 201.05 165.49C202.22 165.5 204.63 167.62 205.41 166.01C211.34 155.2 215.92 140.95 215.89 128.61C215.72 128.43 215.56 128.26 215.4 128.08C213.67 128.07 211.99 127.78 210.37 127.23C207.84 125.08 207.84 122.93 210.37 120.78C211.99 120.22 213.67 119.93 215.4 119.92C215.56 119.74 215.72 119.57 215.89 119.39C215.93 107.05 211.32 92.79 205.45 81.96C204.38 79.71 200.76 84.88 197.69 80.94C194.69 75.9 201.4 75.64 199.81 72.65C193.33 63.21 185.4 55.2 176.03 48.62C173.56 46.63 172.83 49.37 171.15 50.6C167.86 51.56 165.97 50.34 165.49 46.95C165.5 45.77 167.63 43.37 166.01 42.59C155.2 36.66 140.95 32.08 128.61 32.11C128.43 32.28 128.26 32.44 128.08 32.6C128.07 34.33 127.78 36.01 127.23 37.63C125.08 40.16 122.93 40.16 120.78 37.63C120.22 36.01 119.93 34.33 119.92 32.6C119.74 32.44 119.57 32.28 119.39 32.11C106.83 32.06 92.4 36.76 81.53 42.94C80.6 44.77 84.58 47.08 80.93 50.31C75.89 53.32 75.65 46.59 72.66 48.22C62.97 54.84 54.81 62.98 48.18 72.64C46.85 75.04 50.47 75.42 50.86 77.58C51.3 80.29 50.17 81.93 47.49 82.5C46.1 82.83 43.92 80.71 42.96 81.56C36.86 91 32.59 107.28 31.99 118.52C31.7 120.85 35.02 119.84 36.35 120.26C40.5 121.24 40.68 126.53 36.35 127.73C34.6 127.84 31.54 127.32 32 130ZM120.15 51.04C121.8 43.85 131.82 49.47 126.09 54.51C122.71 55.78 120.73 54.62 120.15 51.04ZM135.87 53C136.04 50.76 137.25 49.5 139.51 49.21C174.42 57.27 199.51 87.57 200.44 123.51C200.49 128.73 193.91 129.33 192.92 124.52C191.53 91.07 170.03 65.12 137.91 56.48C136.46 55.77 135.78 54.62 135.87 53ZM65.42 124C65.97 91.02 91.44 65.63 124.46 65.43C182.44 67.25 204.11 139.49 156.37 172.77C117.18 198.47 65.77 170.65 65.42 124ZM78.9 102.03C85.65 107.9 104.98 113.05 104.7 123.54C104.54 134.29 88.04 140.41 79.76 145.23C78.76 146.33 78.73 147.5 79.67 148.72C80.55 149.75 81.29 152.66 83.01 152.3C89.72 149.59 102.64 138.71 109.51 139.62C125.12 141.44 118.77 161.87 120.06 172.51C119.99 173.34 120.24 174.03 120.81 174.58C122.17 174.77 126.76 175.25 127.66 174.2C127.86 165.68 128.03 157.16 128.18 148.63C130.07 141.7 136.4 138.12 143.37 140.16C150.61 144.14 157.82 148.19 165 152.29C166.7 152.75 167.86 149.08 168.69 148.07C169.32 146.98 169.17 146.04 168.24 145.24C159.93 140.34 143.49 134.36 143.29 123.54C144.21 113.58 160.3 107.39 168.24 102.77C170.52 101 167.19 97.84 166.32 96.1C165.94 95.77 165.49 95.63 164.99 95.7C158.28 98.41 145.36 109.3 138.49 108.38C122.87 106.56 129.23 86.13 127.93 75.49C128.01 74.66 127.77 73.97 127.19 73.41C125.83 73.23 121.25 72.76 120.34 73.8C120.14 82.32 119.97 90.84 119.82 99.37C117.93 106.3 111.6 109.87 104.63 107.84C97.39 103.86 90.18 99.81 83 95.71C81.93 95.74 81.21 96.29 80.83 97.35C79.72 98.73 79.07 100.29 78.9 102.03ZM87.88 89C89.19 90.66 106.61 100.64 108.49 100.65C110.93 100.34 112.17 98.97 112.21 96.51C112.32 89.51 112.26 82.51 112.04 75.52C111.33 74.96 110.54 74.87 109.68 75.26C104.05 76.5 90.29 84.02 87.88 89ZM135.74 78C135.73 84.17 135.75 90.34 135.78 96.51C135.97 100.43 139.16 101.59 142.34 99.73C148.27 96.38 154.1 92.9 159.85 89.28C160.02 88.78 159.94 88.32 159.6 87.91C153.57 81.91 146.48 77.69 138.32 75.26C135.77 74.2 135.6 76.04 135.74 78ZM73.19 124C73.28 128.55 73.91 133.03 75.08 137.42C75.38 137.96 75.83 138.16 76.44 138.01C82.69 134.59 88.87 131.02 94.97 127.3C97.44 125.1 97.45 122.89 94.98 120.68C88.87 116.99 82.69 113.43 76.44 110C75.84 109.85 75.38 110.04 75.08 110.58C73.89 114.97 73.26 119.44 73.19 124ZM151.13 124C151.4 128.02 166.82 135.43 170.69 137.67C171.52 138.18 172.27 138.09 172.92 137.42C175.44 128.47 175.44 119.53 172.92 110.58C172.27 109.9 171.52 109.81 170.69 110.32C167.17 113.31 151.23 119.54 151.13 124ZM112.22 124C115.3 101.26 146.58 116.25 132 132.5C123.99 139.37 112.88 134.4 112.22 124ZM120.18 124C120.55 128.77 126.77 129.22 127.79 124.47C127.95 119.1 120.74 118.59 120.18 124ZM87.87 159C90.34 164.02 104.02 171.48 109.68 172.74C110.54 173.13 111.33 173.04 112.04 172.48C112.26 165.49 112.32 158.49 112.22 151.49C111.7 147.98 109.76 146.78 106.39 147.91C102.44 150.26 90.67 156.65 87.87 159ZM135.74 170C135.6 171.96 135.77 173.8 138.32 172.74C146.47 170.3 153.57 166.08 159.6 160.09C159.93 159.68 160.01 159.22 159.84 158.72C153.87 154.97 147.79 151.36 141.62 147.9C138.72 146.43 135.77 148.2 135.79 151.49C135.75 157.66 135.73 163.83 135.74 170Z" fill="#63738C" stroke="#63738C" stroke-width="0.5"/>
</g>
<defs>
<clipPath id="clip0_344_142">
<rect width="200" height="200" fill="white" transform="translate(24 24)"/>
</clipPath>
</defs>
</svg>
